<svg width="533" height="244" viewBox="0 0 533 244" fill="none" xmlns="http://www.w3.org/2000/svg">
<path d="M106.971 198.77L64.1613 243.02H35.3114C16.0214 243.02 6.25135 242.67 5.81135 241.96C5.45135 241.37 15.4614 230.46 28.0614 217.71C47.8914 197.64 84.9413 159.7 148.391 94.52C239.721 0.699997 239.261 1.15 243.681 0.56C245.971 0.26 259.231 0.35 273.131 0.76L298.411 1.52L295.241 5.02C293.501 6.95 285.711 15.04 277.941 23.02C270.161 30.99 247.391 54.4 227.331 75.02C207.271 95.64 181.611 121.97 170.321 133.52C159.021 145.07 130.521 174.43 106.971 198.77ZM71.8614 162.27L57.9614 177.02H29.2114C13.4014 177.02 0.261352 176.68 0.0113519 176.27C-0.238648 175.86 3.67135 171.18 8.70135 165.89C28.2014 145.35 102.511 67.79 115.881 54.02C123.631 46.05 133.751 35.47 138.381 30.52C143.021 25.57 151.571 16.68 157.391 10.76L167.971 0L196.411 0.6C212.051 0.93 224.961 1.3 225.081 1.43C225.211 1.55 212.841 14.69 197.581 30.63C121.431 110.19 84.4914 148.87 71.8614 162.27ZM214.791 164.25L202.851 176.98L173.601 177C151.891 177.01 144.351 176.72 144.351 175.85C144.351 175.2 150.541 168.34 158.111 160.6C206.191 111.4 234.561 81.97 285.251 28.74L311.651 1.02H371.391L367.111 5.27C355.881 16.43 239.731 137.66 214.791 164.25ZM532.911 175.92C532.441 176.68 523.551 177.02 504.501 177.02H476.761L466.771 166.27C458.371 157.23 441.941 139.28 420.371 115.55C417.881 112.81 413.131 107.64 409.811 104.05C406.491 100.46 399.721 93.02 394.761 87.52C389.801 82.02 377.551 68.6 367.541 57.7C357.541 46.8 349.351 37.23 349.351 36.45C349.351 35.2 378.451 3.97 380.291 3.25C381.001 2.97 389.351 12.01 400.561 25.21C404.151 29.44 410.461 36.64 414.581 41.21C423.981 51.63 445.081 75.54 452.351 84C458.321 90.95 472.721 107.4 477.771 113.02C479.491 114.95 490.531 127.32 502.291 140.52C514.041 153.72 525.901 166.84 528.631 169.67C531.361 172.51 533.281 175.32 532.911 175.92Z" fill="white"/>
</svg>
